<svg xmlns="http://www.w3.org/2000/svg" viewBox="0 0 990 990"><defs><style>.cls-1{isolation:isolate;}.cls-2{opacity:0.72;}.cls-3{fill:#ffb0cd;}.cls-4{fill:#fff;opacity:0.56;}.cls-5,.cls-9{opacity:0.28;}.cls-10,.cls-6,.cls-9{fill:#e60072;}.cls-11,.cls-7{fill:#ffc5c7;}.cls-8{fill:#9e005d;}.cls-10,.cls-11{mix-blend-mode:multiply;}</style></defs><title>ImagenDosIcono</title><g class="cls-1"><g id="Layer_1" data-name="Layer 1"><g class="cls-2"><circle class="cls-3" cx="495" cy="495" r="495"/></g></g><g id="Layer_3" data-name="Layer 3"><circle class="cls-4" cx="495.54" cy="495.54" r="475"/></g><g id="Layer_4" data-name="Layer 4"><g class="cls-5"><path class="cls-6" d="M866.09,424.68l19.72-4.43c-9.59,8.34-22.26,23-25.17,32.08l-8.31,26-4.28-1.43C859.22,447.06,864.05,431.84,866.09,424.68Z" transform="translate(-5 -5)"/><path class="cls-6" d="M789.39,426.22a23.38,23.38,0,0,1,3.32,1.45,55.2,55.2,0,0,1,4.06-9s1.37-.59,9.73.12S830.9,397.2,836.89,391,849.1,374.1,849.1,374.1a10.14,10.14,0,0,1,4.34.13c3.4,1.14,1.32,5.42-1.57,9.39l1,.13,1,.16c6.63,1.13,15.68,4.25,21,6.22l.86.33.89.33c.38-4.28.37-7.32.37-7.32a11.51,11.51,0,0,1-7.69-.32c-8.11-2.71-16.51-11.09-16.51-11.09-.11-2.88,1.78-2.25,1.78-2.25a38.58,38.58,0,0,0,5.1,2.17c3.45,1.16,6.32,1.4,11.14,2.08,5.2.73,12.49-.94,15.36,0a1.53,1.53,0,0,1,1.15,2.06c-1.11,4.42,2.55,21.66,4,30.67s-2.44,10.86-2.44,10.86l-22.26,5-4.71,1.05c-33.79,13.5-29.19,44-43,42.68a31.25,31.25,0,0,1-6.7-1.54c-13.23-4.43-29-16.61-28.73-19.17.38-3,1.25-14.56,1.44-18.38C785.07,425.25,787.33,425.53,789.39,426.22ZM875.93,397c-.26-.13-.55-.25-.87-.38s-.54-.23-.85-.34c-6-2.26-18.53-5.15-25-6.57l-1-.23-1.05-.23c-1.06,1.15-1.8,1.88-1.8,1.88a12.9,12.9,0,0,0-2.73,9.81l.88-.17.89-.18c7.78-1.47,21.25-3.65,29.57-2.85l.89.09.9.14C875.83,397.64,875.88,397.31,875.93,397Zm-6.43,17.48a26.27,26.27,0,0,0,4.54-9.12h-.22l-.72,0-.92-.05c-4.71-.22-18.43-.67-26,.9l-.89.2c-.31.08-.61.15-.89.24,3.61,7.55,11.21,13.4,11.21,13.4Zm-46.62,6.84c.55,2,9.29,15.09,10.19,15s5.61-4.21,5.61-4.21C826.84,419.45,822.33,419.33,822.88,421.31Z" transform="translate(-5 -5)"/></g><g class="cls-5"><path class="cls-6" d="M620.86,512.9c6.73,11.74,12.68,11.21,12.68,11.21,11.94-1.5,26.31-14.49,26.39-17.82.07-2.55-1.82-8.29-2.72-10.88-4.49,6.32-11.76,11.17-21.7,14.39A72.56,72.56,0,0,1,620.86,512.9Z" transform="translate(-5 -5)"/><path class="cls-6" d="M605,532.52s-8-21.64-10.43-31.66l-.63.27c-.49.21-1,.44-1.52.61a6.88,6.88,0,0,1-5.78-.82,35.18,35.18,0,0,0,2.77,3.38c3.82,4.09,11.18,28.76,11.18,28.76S602.41,534.53,605,532.52Z" transform="translate(-5 -5)"/><path class="cls-6" d="M650.13,494.09c-8.16,2-12.27-.24-12.27-.24l0,0a.64.64,0,0,0-.22-.06c-.14,0-.27,0-.4,0l-.66,0c-3.69-.12-7.26.62-10.95.55-5.76-.11-10.34-4.71-14.55-8.16a40.82,40.82,0,0,0-11.84-6.64c-.6-.22-1.21-.44-1.82-.64s-1.16-.39-1.75-.57c-5.84-4.35-9.41-6.43-11.09-6.72a1,1,0,0,0-.46,0c-3.35,1.09-10.67,17.64.66,26.59l.2.15c3.45,2.67,5.32,2.77,7,2.22.75-.24,1.47-.61,2.27-.93.26-.11.52-.2.8-.29,3.55-1.15,9.19-.75,25,12.38a70.43,70.43,0,0,0,15-3.1c7.67-2.48,16.44-6.87,21.58-14.58C656.68,494.08,658.3,492.05,650.13,494.09Zm-18.58,5.84c-3.66,1.18-9.14.38-17-6.34-6.48-5.51-11.8-9.85-16.11-13.18l1,.34c.29.11.56.24.84.35.77.32,1.52.66,2.25,1,4.31,2.18,8,5.2,11.81,8.28,3.09,2.49,6.64,4.84,10.68,5.1,3.65.23,7.22-.52,10.86-.52l.72,0q.35,0,.69,0A10.56,10.56,0,0,1,631.55,499.93Z" transform="translate(-5 -5)"/></g><g class="cls-5"><path class="cls-7" d="M332.72,519.57c-7.63,9.29-11.43,8.28-11.43,8.28-7.52-2.37-13.56-14.68-12.72-17.5.64-2.15,3.44-6.82,4.73-8.93,1.28,5.76,4.8,10.53,10.53,14.17A34.27,34.27,0,0,0,332.72,519.57Z" transform="translate(-5 -5)"/><path class="cls-7" d="M338,537.61s11.09-17.52,15.44-25.75l.34.29a7.94,7.94,0,0,0,.85.65c1.07.68,2.32.65,4.05-.15a37.42,37.42,0,0,1-2.75,2.59c-3.63,3.1-15.15,23.24-15.15,23.24A1.91,1.91,0,0,1,338,537.61Z" transform="translate(-5 -5)"/><path class="cls-7" d="M318.35,501c4.87,2.48,8.21.94,8.21.94v0a.41.41,0,0,1,.16,0l.28,0,.44,0c2.48.24,4.65,1.2,7.12,1.49,3.85.44,8.13-3,11.85-5.54a33.7,33.7,0,0,1,9.64-4.5c.46-.13.92-.26,1.38-.37l1.31-.32c5.05-3.13,8-4.55,9.17-4.64a.49.49,0,0,1,.3.08c1.93,1.23,2.33,15.88-7.6,22.38l-.17.11c-3,1.93-4.27,1.84-5.26,1.22-.43-.28-.81-.65-1.25-1a5.15,5.15,0,0,0-.45-.32c-2.05-1.3-5.9-1.48-20,8.12a33,33,0,0,1-9.12-4c-4.42-2.8-9.06-7.32-10.4-14.31C314,500.35,313.48,498.49,318.35,501Zm10.76,6.66c2.11,1.34,6,1.17,13-3.76,5.78-4.06,10.48-7.22,14.23-9.63l-.77.19-.65.22a18.83,18.83,0,0,0-1.77.66,61.37,61.37,0,0,0-10.06,5.89c-2.72,1.81-5.71,3.46-8.46,3.31-2.49-.15-4.65-1.12-7.07-1.45-.15,0-.31,0-.48-.06l-.46,0C326.79,504.28,327.32,506.49,329.11,507.63Z" transform="translate(-5 -5)"/></g><g class="cls-5"><path class="cls-7" d="M684.07,356.73c-39,7-61,14.75-71.22,25.2,1.94,5.9,1.63,10.72,0,14.78l8.39-4.53c22.84-12.22,46.93-23.66,90.39-29.45,35.21-4.69,50.12-11.14,56.25-15.07C748.93,348.84,712.51,351.6,684.07,356.73Z" transform="translate(-5 -5)"/><path class="cls-7" d="M733.57,293.73c-8.8,5-9.71,6.52-10.27,7.46-.67,1.16-1.32,2-4,3.49-5.5,2.95-21.52,9.25-65.9,26a353,353,0,0,0-41.68,18.62C558,378,551.61,404.77,550.94,409c4.49,7.1,15.46,7.73,31.61,2.07a39.87,39.87,0,0,1,9.78-8.43,52.2,52.2,0,0,0,7.36-5.49,42.07,42.07,0,0,1,3.88-9.08,17,17,0,0,0-1.42-5,5.22,5.22,0,0,1,2.37-6.87,5.13,5.13,0,0,1,4.13-.36,4.94,4.94,0,0,1,2.53,2.21,51.14,51.14,0,0,1,10.72-7.5c12.9-6.9,32.68-12.53,61.36-17.71,30.5-5.51,70.06-8.3,87.76-9.34C758.24,306.33,737.82,295.6,733.57,293.73Z" transform="translate(-5 -5)"/><path class="cls-7" d="M609.14,380c0-.11-.08-.21-.13-.32a2.12,2.12,0,0,0-3.11-1,2.54,2.54,0,0,0-1.2,3.33,25.54,25.54,0,0,1,1,2.54,14.71,14.71,0,0,1,.71,6.82,11.92,11.92,0,0,1-2.29,5.22,24.31,24.31,0,0,1-5.17,5c-1.55,1.16-3.24,2.29-5,3.45a51.65,51.65,0,0,0-5,3.62,28.86,28.86,0,0,0-3.72,3.6,22.11,22.11,0,0,0-2,2.87,19.16,19.16,0,0,0-2.59,7.06c-.68,4.42,2.76,6,5.94,4.33a7.53,7.53,0,0,0,1.22-.83c4.88-4.12,9.8-10.66,11.06-17.1,0-.15.08-.31.11-.47a2.24,2.24,0,0,0,0-.45c1.37-.93,2.65-1.85,3.83-2.81l.39-.32c.36-.29.72-.59,1-.89a26,26,0,0,0,4.1-4.43c2.92-4.08,4-8.78,2.42-14.75A29.61,29.61,0,0,0,609.14,380Zm-23,40.32a14.78,14.78,0,0,1,3.11-5.4,21.63,21.63,0,0,1,2.95-2.7A35.42,35.42,0,0,1,586.12,420.31Z" transform="translate(-5 -5)"/></g><g class="cls-5"><path class="cls-6" d="M773.75,585c-16.45,12.22-24.85,20.83-27.2,28a10.67,10.67,0,0,1,3.38,6.85l2.85-4c7.77-10.9,16.3-21.73,35.1-34.39,15.23-10.25,20.65-16.66,22.59-19.89C802,566.48,785.75,576.12,773.75,585Z" transform="translate(-5 -5)"/><path class="cls-6" d="M782.22,544.49c-2.94,4.31-3,5.24-3.05,5.81a4.22,4.22,0,0,1-1.07,2.55c-1.87,2.62-7.84,9.22-24.55,27.14a183.23,183.23,0,0,0-15,18.19c-18.28,25.64-15.08,39.49-14.43,41.59,3.71,2.26,8.94,0,15.12-6.29a20.71,20.71,0,0,1,2.59-6.15,26.05,26.05,0,0,0,2.15-4.24,22.2,22.2,0,0,1-.29-5.09,8.47,8.47,0,0,0-1.8-2,2.75,2.75,0,0,1,1.35-4.84,2.57,2.57,0,0,1,1.68.45,26.38,26.38,0,0,1,3.25-5.94c4.39-6.15,12.26-13.3,24.35-22.28,12.86-9.55,30.54-19.92,38.5-24.47C796.53,544.66,784.62,544.38,782.22,544.49Z" transform="translate(-5 -5)"/><path class="cls-6" d="M744.39,613l-.13-.12a1.1,1.1,0,0,0-1.68.24,1.31,1.31,0,0,0,.21,1.82,13.79,13.79,0,0,1,1,1,7.64,7.64,0,0,1,1.89,3,6.1,6.1,0,0,1,.14,2.94,13,13,0,0,1-1.25,3.49c-.46.89-1,1.8-1.54,2.74a29.28,29.28,0,0,0-1.48,2.82,14.93,14.93,0,0,0-.89,2.53,11.91,11.91,0,0,0-.28,1.79,10,10,0,0,0,.42,3.86c.7,2.2,2.66,2.16,3.75.64A3.44,3.44,0,0,0,745,639c1.31-3,2.09-7.19,1.2-10.46a2.1,2.1,0,0,0-.06-.24.78.78,0,0,0-.11-.2,24.1,24.1,0,0,0,1.13-2.19l.11-.24c.1-.21.2-.43.28-.65a13.26,13.26,0,0,0,.88-3,8.55,8.55,0,0,0-2.26-7.39A16.37,16.37,0,0,0,744.39,613ZM743,637a7.58,7.58,0,0,1,.2-3.21,11.34,11.34,0,0,1,.75-1.93A18.33,18.33,0,0,1,743,637Z" transform="translate(-5 -5)"/></g><g class="cls-5"><path class="cls-6" d="M180.08,454.69a49.16,49.16,0,0,0,8.28,7.3c-.24,5.59-1.54,6-1.54,6-.94,2.68-4.65,2.66-3,4.31s1.28,4.84,7.52.88c1.71-1.09,4.8-1.34,8.38-1.13a59.63,59.63,0,0,0,5-6.06c.17-.22.33-.42.5-.66l.49-.68c.78-1.08,1.61-2.28,2.52-3.61h0l.47-.7.46-.68c-9.57-6-20.19-11.14-22.13-10.74-1.68.33-7.31,2.87-7.64,4.56A1.14,1.14,0,0,0,180.08,454.69Zm8.31,5.24a52.74,52.74,0,0,1-5.07-4.22c1.5.48,3.19,1.07,5,1.77C188.37,458.37,188.39,459.19,188.39,459.93Z" transform="translate(-5 -5)"/><path class="cls-6" d="M262,501.11l.33-.6-4.27-3.5-.51.77c-.13.21-13.65,20.55-17.59,26.85-.66,1.06-1.26,2.21-1.82,3.32-1.32,2.55-2.55,5-4.23,5.36-2,.46-5-2-9.1-7.5-5.51-7.42-2.72-18.27,0-28.77.36-1.39.71-2.78,1-4.15l-.79-.32-.8-.32c-1.13-.45-2.54-1-4.15-1.61l-.82-.31-.84-.31a23.76,23.76,0,0,1-.36,2.73c-4.29,21.92.31,33.26,2.5,37.13-1.94,10-6,23.25-6,23.25l-6.25,2.16c-.33-.54-.7-1.1-1.08-1.67,8.82-5.52,9.79-15.69,9.11-25.71-.44-6.41-1.57-12.78-1.64-19.21-.07-6.74,1.44-13.11.57-19.8,0-.3-.1-.62-.15-.93s-.1-.63-.16-.94c1.21.41,2.39.83,3.5,1.23l.84.31.86.32c1.71.64,3.21,1.23,4.41,1.71l.8.32.8.33,1.44.6c2-11.44,1.3-12.39,0-17.15-.79-2.85-6.71-7.49-11.32-10.74-3.09-2.17-5.59-3.73-5.59-3.73l-.19.29-.46.69-.47.69-.17.25c-.86,1.27-1.67,2.42-2.42,3.47-.16.23-.32.45-.49.67s-.33.45-.49.67c-1.68,2.27-3.08,4-4.21,5.22-3.39,3.74-4.57,3.69-4.57,3.69-3.67,2.3-8.44-1.47-7.9,2,.3,1.93-1,2.79-.22,3.37.65.45,2.62.74,7.73,1.25a83.07,83.07,0,0,1,16.38,4,1,1,0,0,0,0,.35,5.67,5.67,0,0,1,.1.57c.07.32.12.62.17.93,1,6.19,0,12.13-.42,18.34-.31,4.92.43,10,1,14.85,1.21,10.94,2.59,24.32-7.78,30.74-8.86-12.16-27.18-27.1-28.44-26a4.46,4.46,0,0,0-1.56,2.21A136.63,136.63,0,0,1,207.16,562c3.52-3.12,12.88-3.4,13.41-5.06s-.83.06,4.93-9.38a10.38,10.38,0,0,0,.87-1.77l.4,1.2a12,12,0,0,1-.76,1.52,59.26,59.26,0,0,0-3.68,7.35c-1.1,2.58-1.27,3-3.24,3.26-3.79.52-10.33,2.38-13.78,4.64-2.45-4.16-13.93-22.68-29.91-34l-.7-.5-3.23,4.57.51.51c11.52,11.36,28.63,29.8,28.53,34a2.58,2.58,0,0,0,1.12,2.28c4.6,3.24,23.39-4.63,29.53-10.33,3.83-3.56,5.36-5.65,5.56-7.63.3-.72.58-1.55.92-2.54a90.66,90.66,0,0,1,3.87-9.65C247.29,528.15,261.87,501.38,262,501.11Z" transform="translate(-5 -5)"/></g><g class="cls-5"><path class="cls-6" d="M240.92,600.68,263,562.59a49.6,49.6,0,0,0-3.23-4.48c-3.77-4.64-6.17-8.52-7.28-11.83L230.44,593S235.35,598.62,240.92,600.68Z" transform="translate(-5 -5)"/><path class="cls-6" d="M261.09,557.09c1.06,1.3,2,2.59,2.88,3.88,12.34,18.33,6.17,35.26,4.64,45.82-1.58,10.83,5.77,15.37,13.94,20.14l1.07.62c8.57,5,25.65,6.19,25.65,6.19s7.31-11.19,11.22-17.44-8-13.48-9.65-18.7a59.54,59.54,0,0,1-1.38-5.86,9,9,0,0,0,1,1.31,1.1,1.1,0,0,0,.18.14.89.89,0,0,0,.88.13,1.05,1.05,0,0,0,.43-1.71,6.13,6.13,0,0,1-1.13-1.83,8.35,8.35,0,0,1-.51-2.95c0-4.65,2.79-10.37,3.71-14q.74-2.85,1.21-5.68c3.35.17,6-3.31,5.81-6.34s-2-5.71-4.06-8.05c-.19-.22-.39-.43-.58-.64l-.58-.63c.45-.65.85-1.21,1.2-1.7l.94.15.95.12c5.11.59,10.72.15,13.63-4a1,1,0,0,0-.17-1.26c-4.15-3.4-9.29-2.65-13.84-.79l-.75.33-.76.34c-1.63-3.79-4.92-9.76-10.5-13-8.57-5-24-17-24-17-3.53,5.14-14.75,14.58-19.24,18.08-3.17,2.48-10.92,3.73-9.57,11.2C254.2,547.05,256.34,551.25,261.09,557.09Zm48.73,22.44q-.22.69-.45,1.41c-.2.64-.39,1.29-.56,1.95a19.78,19.78,0,0,0-.46,2.49c-.82-5.2-1.52-10.69-1.82-14.28-.23-2.82,1.63-7.12,3.94-11.24q0,.78.12,1.53a12.22,12.22,0,0,0,.22,1.39,5.32,5.32,0,0,0,2.36,3.85A80.7,80.7,0,0,1,309.82,579.53Zm5.88-24.94a17,17,0,0,1,2.9,4.95,3.75,3.75,0,0,1-1.21,4.61,4.7,4.7,0,0,1-1.89.86,39.71,39.71,0,0,0,0-10.1c0-.24-.05-.47-.08-.71Zm-2.15,1.76c.05.47.09.94.11,1.41a39,39,0,0,1-.13,6.11,9.41,9.41,0,0,1-1.07-4.12c0-.51,0-1,0-1.55s0-1.08,0-1.63l1-1.55C313.46,555.47,313.51,555.91,313.55,556.35Zm5-10.09.76-.34c3.5-1.48,7.55-2.34,10.81-.26-2.32,2.49-6.34,2.81-10.11,2.45l-.89-.09-.89-.12c-.07-.23-.22-.68-.43-1.28C318,546.49,318.26,546.37,318.51,546.26Z" transform="translate(-5 -5)"/></g><g class="cls-5"><path class="cls-6" d="M531.79,450.36c7-3.49,8.12-5.68,13.66-3.33S570.62,465,570.62,465c8.31,1.78,22.33-8.73,25.24-11a.57.57,0,0,0,.5-.4l0,0h0a.29.29,0,0,0,0-.09c.4-3.52-5.89-5.14-8.75-6.85a5.19,5.19,0,0,1-.71-1.41c-1.14-3.77-2.31-8.38-4.31-12.11s-6.2-2.57-13.14-5.71-18.15-12.93-18.15-12.93l-1.2,1.59s1.55,1,14.84,11.15-9.65,4.4-17.24,1.47S537.6,428,535,432s-4.82,9-7.7,13.91S524.82,453.85,531.79,450.36Zm58.94-.63c1.23.57,3.73,1.47,4.11,2.89A42.44,42.44,0,0,1,590.73,449.73Z" transform="translate(-5 -5)"/></g><g class="cls-5"><path class="cls-8" d="M596.77,817.31c-4.23-6.7-6.56-7.74-4.75-13.33s12.66-27.31,12.66-27.31c.51-4.49,50-60.7,66.47-84.32-8.68-24.26-27.9-35.76-29.08-37-.06-.23-48.42,98.07-48.67,98l0,0v0l-.09,0c-3.58-.21-4.58,6.09-6,9a5.17,5.17,0,0,1-1.35.77c-3.67,1.33-8.2,2.71-11.75,4.89s-2,6.26-4.4,13.28-11.18,18.6-11.18,18.6l1.73,1.11s.87-1.59,9.71-15.25,5.41,9.31,3.24,17,.35,10.05,4.68,12.37,9.56,4.29,14.79,6.88S601,824,596.77,817.31Z" transform="translate(-5 -5)"/></g><g class="cls-5"><path class="cls-6" d="M361.29,554.85c.23-4.56-.56-5.83,2.24-7.85s15.5-8.6,15.5-8.6c1.79-1.95,45.17-11.8,61.26-17.4,4-14.31-1.41-26.14-1.56-27.14,0-.12-57.14,29.91-57.24,29.79v0h0l0,0c-1.69-1.3-4.32,1.33-6,2.22a3.08,3.08,0,0,1-.93-.08,40,40,0,0,0-7.4-1.64c-2.48-.16-3.1,2.29-6.69,4.77s-11.81,5-11.81,5l.47,1.1s1-.46,9.94-3.92-.53,6.18-4.2,9.06-3.26,4.84-1.94,7.37,3.21,5.22,4.88,8.19S361.07,559.41,361.29,554.85Z" transform="translate(-5 -5)"/></g><g class="cls-5"><path class="cls-6" d="M346.44,594.66c-.74-.34-1.48-.66-2.22-1-8.05-3.41-13.08-5.67-16.18-7.86,4.79,12,15.22,37.14,26.81,58.27,0,0,3.66.8,4.87-.46C360.68,642.63,336.71,598.42,346.44,594.66Z" transform="translate(-5 -5)"/><path class="cls-6" d="M388.29,625a5.77,5.77,0,0,0,1.48,2.38c3.2,2.93,18.77,4.71,26.57,1.88s21.8-9.91,25.35-16.21c2.17-3.86,3.36-7.63,1.66-8.27l-.41.58c-.4.55-9.78,13.56-26.11,19.2A45.9,45.9,0,0,1,388.29,625Z" transform="translate(-5 -5)"/><path class="cls-6" d="M430.71,595.62l-.76.3c-.68.31-1.35.57-2,.79-5.83,2-9.72.76-11,.21l-.13-.1c-.37-.19-.74-.35-1.11-.52s-.53-.27-.8-.39c-10-4.41-20.8-3.8-30.42-10.19a80.92,80.92,0,0,0-13.41-7.64c-1-.42-2-.8-3-1.13-.82-.27-1.65-.5-2.49-.71-14.14-9.89-32.78-20.76-32.78-20.76a2.94,2.94,0,0,0-1.86.07c-1.8.62-4.35,3.16-5,12.35-.33,5-1,8.27-.76,10.78h0a6.45,6.45,0,0,0,1.39,3.61c2.15,2.73,7.2,5.13,18.23,9.79,2.21.94,4.39,2,6.51,3.08,1.37.71,2.73,1.46,4.06,2.22,2.14,1.24,4.21,2.54,6.21,3.86A152.41,152.41,0,0,1,387.5,623l.36.11a44.14,44.14,0,0,0,28.35-.18c13.58-4.68,22.29-14.76,24.62-17.72.42-.53.66-.86.66-.86S438.54,592.92,430.71,595.62Zm-22.07,8.89c-9.95,3.44-22.28-10-30-17.94-.67-.69-1.48-1.44-2.38-2.22,1.2.72,2.41,1.48,3.62,2.26,1,.66,2.09,1.33,3.16,2s2.38,1.47,3.62,2.18c8.34,4.78,18,4.28,26.64,7.83.28.11.57.23.85.36l.8.38A13,13,0,0,1,408.64,604.51Z" transform="translate(-5 -5)"/></g><g class="cls-5"><path class="cls-6" d="M503.37,539.87,475,539.22a1.85,1.85,0,0,0-1.91,1.84v6.87c12.77.88,25,2.26,32.21,6l0-12.14A2,2,0,0,0,503.37,539.87Z" transform="translate(-5 -5)"/><path class="cls-6" d="M505.31,556.44c-6.78-4.16-20.38-5.49-32.21-6.3l-2.62-.17c-16.94-1.1-24.59-12.59-46.53-13.09s-48.87,12.79-48.87,12.79c0,5.27,5,9.09,14.62,9.31h.9c1.25,0,2.45,0,3.61,0,8.37.19,14.67,1.28,22.63,6.22,8.18,5.08,13.85,16.41,17.85,16.5a2.07,2.07,0,0,0,1.26-.4c3.41-2.42,4.61-8.62,4.91-10.5h-.08l-.63-6.33,1.45.28c2.22.43,48.12,9.44,64.19,22.9,3.45-5.32,3.83-15.83,3.82-24.86C509.61,560.17,508,558.09,505.31,556.44Z" transform="translate(-5 -5)"/><path class="cls-6" d="M504.44,589.34c-13.77-11.68-53.65-20.39-61.77-22.06l.32,3.23c14.92,2.2,49.25,19.07,59.25,19.29A3.7,3.7,0,0,0,504.44,589.34Z" transform="translate(-5 -5)"/></g><g class="cls-5"><path class="cls-7" d="M493,448.77l13.19-10.2a1.1,1.1,0,0,0,.17-1.57l-2.6-3.26c-6.16,4.31-12.26,8.19-17,9.07l4.6,5.75A1.15,1.15,0,0,0,493,448.77Z" transform="translate(-5 -5)"/><path class="cls-7" d="M485.81,441.63c4.66-.54,11.37-4.94,17.07-8.94l1.26-.88c8.13-5.75,16-3.13,26.16-11s17.44-24.15,17.44-24.15c-2-2.5-5.7-2.48-10.19,1l-.41.33c-.57.46-1.12.91-1.66,1.32-3.89,3-7.17,4.82-12.67,5.43s-12.52-2.66-14.38-1.23a1.2,1.2,0,0,0-.42.66c-.64,2.41,1.15,5.8,1.73,6.8l0,0,2.68,2.77-.77.4c-1.17.62-25.51,13.33-37.92,12.9.44,3.8,4.24,8.93,7.66,13.2A4.56,4.56,0,0,0,485.81,441.63Z" transform="translate(-5 -5)"/><path class="cls-7" d="M473.76,425.7c10.7.44,32.17-10.19,36.51-12.4l-1.37-1.41c-7.63,4.48-29.67,9.18-34.31,12.77A2.15,2.15,0,0,0,473.76,425.7Z" transform="translate(-5 -5)"/></g><g class="cls-5"><path class="cls-6" d="M656.46,648.86l15.46-19.4A1.55,1.55,0,0,1,674,629l3.92,3.09c-6.62,9-12.66,17.85-14.53,24.39L656.49,651A1.53,1.53,0,0,1,656.46,648.86Z" transform="translate(-5 -5)"/><path class="cls-6" d="M664.85,657.6c1.4-6.43,8.23-16.18,14.36-24.51.46-.62.92-1.24,1.36-1.85,8.82-11.89,6.52-22.2,18.47-37.2s34.57-27.15,34.57-27.15c3,2.37,2.43,7.42-2.83,14l-.5.61c-.69.84-1.36,1.66-2,2.45-4.56,5.72-7.45,10.45-9.07,18-1.66,7.78,1.66,16.69-.52,19.42a2,2,0,0,1-.93.67c-3.29,1.21-7.5-.76-8.74-1.41l.05,0-3.27-3.27-.65,1.1c-1,1.69-21.44,36.64-22.71,53.5-5-.07-11.19-4.53-16.34-8.59C664.58,662.17,664.29,660.14,664.85,657.6Z" transform="translate(-5 -5)"/><path class="cls-6" d="M684.14,671.79c1-14.52,18.27-45.27,21.84-51.49l1.67,1.66c-7.07,11-16.57,41.72-22,48.56A3.85,3.85,0,0,1,684.14,671.79Z" transform="translate(-5 -5)"/></g><g class="cls-5"><path class="cls-6" d="M708.14,396.41c8.75,1.27,17.74.56,25.79-3,7.38-3.27,12.55-9,16.85-14.72,5.5-7.29,10.05-15,15.4-22.41,6.34-8.74,13.13-17.24,19.92-25.74,6.39,2.51,27,12.23,17.77,30.66-10.85,21.69,1.09,44.63-.81,46s-6.13.88-6.13.88c-1-34.49-4.85-37-4.85-37-29.22-4.94-26.27,40.22-58.41,44.78a165.11,165.11,0,0,1-58.95-2.52C672.78,405.2,701.3,403,708.14,396.41Z" transform="translate(-5 -5)"/><path class="cls-6" d="M735.17,390.52c-7.68,4.17-16.56,5.21-25.32,4.16,6.64-5,23.69,1.81,39.59-24.18,14.69-24,30.13-37,33.94-39.95-11,14.06-21.53,28.24-31.53,42.83C747.57,379.63,742.69,386.45,735.17,390.52Z" transform="translate(-5 -5)"/></g><g class="cls-5"><path class="cls-7" d="M379.15,463.47a40.56,40.56,0,0,0,21.57,4.82c6.86-.52,12.66-3.61,17.73-6.9,6.5-4.22,12.37-9.07,18.77-13.39,7.58-5.12,15.46-9.93,23.34-14.74,4.42,3.76,18.18,17.19,5.52,29.16-14.9,14.08-11.87,35.51-13.79,36.09s-5.18-1-5.18-1C456.19,470,453.77,467,453.77,467c-22-12-32.57,24.4-59.68,19a141.92,141.92,0,0,1-46.63-18.46C348.25,460.52,371.76,466.77,379.15,463.47Z" transform="translate(-5 -5)"/><path class="cls-7" d="M402.54,466.37c-7.36,1.14-14.79-.52-21.52-3.79,6.76-2.1,18.5,8,38.69-8,18.65-14.84,34.75-20.74,38.66-22-12.88,8-25.35,16.26-37.55,25C415.6,461.24,409.74,465.26,402.54,466.37Z" transform="translate(-5 -5)"/></g><g class="cls-5"><path class="cls-6" d="M885.48,347.2a17.11,17.11,0,0,1-2.3-2.54c-.22-.3-.45-.58-.66-.89s-.4-.63-.59-.95c-10.22,3.33-27.28,9.3-32.7,13.63-.64-1.32-1.64-3.25-3-5.54,5.68-1.47,23.64-6.45,33.27-12.74-.14-.31-.27-.65-.4-1l-.42-1c-.76-1.94-1.45-4-2.09-6-.11-.35-.22-.7-.32-1.05s-.22-.69-.32-1c-9.47,5.11-28.71,15.13-34.51,15.59-.87-1.16-1.8-2.33-2.79-3.49,8.65-3.78,26.85-16.18,34.49-21.49-.11-.36-.23-.72-.35-1.06s-.24-.72-.36-1.06c-.87-2.42-1.75-4.34-2.67-5.16l-.39-.38c-.28-.25-.54-.5-.79-.75l-.74-.76c-9.28,5.92-28.58,20.16-34.89,24.84a42.06,42.06,0,0,0-4.3-3.32c-.3-.21-.6-.4-.91-.6s-.61-.39-.92-.57c3.53-4.25,14-17.09,18.46-25.8.2-.38.36-.74.53-1.11s.36-.76.51-1.12c.22-.51.42-1,.57-1.48,0-.11.05-.24,0-.3a.6.6,0,0,0-.47-.09l-4.9.64a3.57,3.57,0,0,0-2.28,1.6l-.19.35-.59,1.12-.6,1.13c-3.32,6.14-9.21,16.41-14.87,23.11-.34-.15-.69-.3-1-.43s-.72-.27-1.08-.4c-.94-.32-1.89-.62-2.87-.85l-1.37-.32-1.1-.26-1.1-.26a152.74,152.74,0,0,0,9.63-19.25l.43-1.11.41-1.1c.32-.89.62-1.76.89-2.63.07-.2,0-.29,0-.3a.71.71,0,0,0-.49-.06l-2.69.35a3.19,3.19,0,0,0-2.21,1.63c-.19.49-.4,1-.61,1.51-.14.36-.3.74-.45,1.11s-.31.74-.46,1.12c-2.68,6.49-6.15,14.56-8.12,17.86l-1.1-.27-1.1-.27-2.8-.69-1.06-.28c-.36-.08-.71-.18-1.07-.27,1.06-2.19,3.67-8.31,3.46-14.39,0-.35,0-.71-.07-1.06s-.07-.7-.13-1.06-.1-.67-.17-1c-.11-.49-1-1-1.93-.87l-2.56.34a1.5,1.5,0,0,0-1.44,1.34c0,.42,0,.88.08,1.35s0,.71,0,1.08,0,.7,0,1.07c0,3.78-.33,8.47-1.91,12l-1.08-.3-1-.3c-2.17-.62-4.15-1.24-5.84-1.84-.41-.13-.78-.27-1.15-.41l-1.15-.45-1-6.29-.16-1.05-.17-1.05-.33-2.08a1.11,1.11,0,0,0-1.22-.91l-4.63.61a1.65,1.65,0,0,0-1.39,1.38c0,.6,0,1.31.06,2.09,0,.34.07.69.12,1.06s.13.68.21,1a9,9,0,0,0,2.45,4.67c.15.13.33.23.48.35a1.62,1.62,0,0,0,.34.63,9.38,9.38,0,0,0,2.84,1.89,30.63,30.63,0,0,0,3,1.24c3.92,1.44,10,3.14,19,5.37l3.9.95,5.08,1.2a28.61,28.61,0,0,1,7,2.8c14.22,7.95,22.62,27.06,22.71,27.28a1.64,1.64,0,0,0,2.11.88,1.47,1.47,0,0,0,.57-.4l.7-.09c5.78-.75,26.55-5.05,36.89-11.21-.34-.21-.68-.41-1-.64S885.77,347.46,885.48,347.2Z" transform="translate(-5 -5)"/><path class="cls-6" d="M877,284.51a19.22,19.22,0,0,0-3.09.3c-2,.26-4.76.66-7.6,1.07-3,.44-6.08.89-8.43,1.19-1.79.24-3,.36-3.5.38a2.45,2.45,0,0,0-2.26,1.32c-.53.79-1.52,2.25-8.63,3.18-1.79.23-3.88.42-6.22.56-4,.22-7.35.51-10.15.82a162,162,0,0,0,17-.4c2.18-.14,4.39-.3,6.6-.48,12.07-1,23.82-2.36,27-2.74l.86-.11.2,0,.2,0,.39.1c.22.05.4.14.6.2C878.8,284.63,877.55,284.54,877,284.51Z" transform="translate(-5 -5)"/><path class="cls-6" d="M887.16,326.74c-1.26-9.34,1.92-30-6.69-34.43a7.64,7.64,0,0,0-1.18-.47c-.13,0-.24-.11-.37-.14l-.73.09c-2.68.32-12.67,1.52-23.67,2.47-12.27,1.07-25.76,1.83-31.65.75h0a25,25,0,0,0-3.15-.32A121.1,121.1,0,0,0,800.11,296c-17.16,2.24-36.94,7-38.85,11.35-2.43,5.6,2.86,5.73,14.5,4.2l2.09-.28a20.28,20.28,0,0,1-.09-2.49,3.72,3.72,0,0,1,3.2-3.37l4.63-.6a3.29,3.29,0,0,1,3.67,2.72l.32,2c3.65-.59,6.56-1.14,9.21-1.67,0-.63,0-1.21-.08-1.67a3.51,3.51,0,0,1,3.24-3.54l2.56-.33c2-.27,4,.88,4.35,2.55.08.35.12.7.18,1.05,1.7-.29,3.55-.56,5.64-.84l2.72-.33c.36-.85.7-1.71,1.07-2.6a5.16,5.16,0,0,1,3.87-2.91l2.69-.35a2.68,2.68,0,0,1,2.43.81,2.36,2.36,0,0,1,.4,2.31c-.18.57-.37,1.16-.57,1.74l9.21-.9c.33-.61.63-1.17.85-1.61a5.54,5.54,0,0,1,3.87-2.68l4.89-.64a2.68,2.68,0,0,1,2.43.85,2.37,2.37,0,0,1,.41,2.31c-.05.18-.15.38-.22.56l16.4-1.65s-.17,3.54,4.55,8.43l.75.76c.25.24.5.48.77.72l0,0a14.62,14.62,0,0,1,3,5.42l.38,1.05c.12.34.24.7.35,1.06.95,2.86,1.88,6.21,2.9,9.63.1.35.2.7.31,1.05s.21.69.32,1c.61,1.94,1.25,3.88,2,5.73.13.35.27.7.41,1.05l.42,1a35.9,35.9,0,0,0,2.68,5.22c.21.32.42.62.64.92s.45.6.69.89a13.63,13.63,0,0,0,2.08,2.08c.31.24.63.46,1,.66a8.75,8.75,0,0,0,1,.55,8.31,8.31,0,0,0,4.16.71s2.13-1.4-.69-4.37A46.91,46.91,0,0,1,887.16,326.74Z" transform="translate(-5 -5)"/></g><g class="cls-5"><path class="cls-6" d="M456.54,525.33a1.91,1.91,0,0,0,.77.3c2,.33,5.72-2.22,10.95-7.59a35,35,0,0,0,5.41,5c1,.67,2.57.21,2.41-1.18a31.66,31.66,0,0,0-3-9l.78-.88,1.05-1.22A51.59,51.59,0,0,1,476.7,520a1.46,1.46,0,0,0,2.92-.18,64.79,64.79,0,0,0-2.48-11.73l1-1.13c.69,3.84,1.46,7.67,1.82,11.55.17,1.87,3.09,1.69,2.92-.18-.43-4.7-1.52-9.35-2.29-14a34.08,34.08,0,0,1,3.11-2.92c0,1.85,0,3.7,0,5.55,0,.06,0,.1,0,.15,0,2.49-.59,5.69-.54,8.56,0,.37-.07.74-.12,1.11a1.4,1.4,0,0,0,.33,1.15,6.81,6.81,0,0,0,1.17,2.8c1.23,1.6,2.69.12,3.64-1.41a5.25,5.25,0,0,0,.46,1.35c1,1.85,2.76.52,4-.86a6.2,6.2,0,0,0,.37,2.55c.7,1.72,2.29,1,3.58-.1a6.25,6.25,0,0,0,.27,2.6c.95,2.6,4.12-.21,5.18-1.49l.1-.13a7.83,7.83,0,0,0-.06,4.64c.95,2.59,4.11-.2,5.18-1.49l.09-.12a7.75,7.75,0,0,0-.06,4.64c.92,2.53,3.95-.07,5.09-1.39a6.9,6.9,0,0,0,.31,4c1.16,2.66,4.41,0,5.48-1.22l.23-.28a9.1,9.1,0,0,0,.59,5.08c1.39,2.7,4.68.27,5.75-.88.25-.27.46-.56.69-.84a9,9,0,0,0,.6,5.08c1.05,2.06,3.22,1.14,4.67.08a6,6,0,0,0,.68,3c.94,1.79,2.7,1.3,4.08.43a6,6,0,0,0,.56,2.47c1.06,2.18,3.37,1.44,4.89.52a5.54,5.54,0,0,0,.27,1.87c.92,2.61,4.23.8,5.35-.13.19-.15.35-.33.53-.48a6.23,6.23,0,0,0,0,4.11c.87,2.27,3.4,1.41,4.87.53a5.78,5.78,0,0,0,.12,3.39c.69,1.84,2.55,1.48,3.94.8a5.11,5.11,0,0,0,0,1.91c.51,2.24,3.19,1.18,4.57.32a5.12,5.12,0,0,0-.06,2.58c.61,2.46,3.82.91,4.93.11,5.8-4.22,9.79-10.76,14.19-16.39a6.39,6.39,0,0,0,2.48-.92c3.92.39,6.88-4.54,8.53-6.84,2-2.88-1-4.87-1-4.87-10.71-8.72-16.68-23.93-18.17-29s-6.1-19.32-19.89-19.73-42.76-28.09-42.76-28.09l-2,2.3c42,35,35,31.32,25.12,33.88s-29.65-5.94-40.59-9.39-26,23.73-32.54,32C453.25,522,454.56,525.35,456.54,525.33Zm118.77,17.08c.35-.45.7-.9,1.06-1.34.68.58,1.26,1.07,1.79,1.5-.24.29-.46.58-.69.87A10.15,10.15,0,0,1,575.31,542.41Zm-10.25,8.15a40.76,40.76,0,0,1-5.84,6,23.09,23.09,0,0,1,1.18-2.2c.92-1.59,2-3.08,2.89-4.71,0,0,0-.09.05-.14,2.07-2.91,3.89-6,5.78-9l2.29,1.65.22.15C569.46,545.06,567.34,547.87,565.06,550.56Zm-11.69-9.8c1.92-2.77,3.67-5.68,5.46-8.49l2.84,2.24c-1.92,2.94-3.8,5.91-5.87,8.76a36.19,36.19,0,0,1-5.55,6.44,22.61,22.61,0,0,1,1-2.37c.77-1.73,1.78-3.32,2.47-5.09A1.39,1.39,0,0,0,553.37,540.76Zm1.07-14.18c.28-.5.56-1,.85-1.5,1,.67,2,1.34,3,2-.36.51-.71,1-1.05,1.54C556.33,527.92,555.38,527.23,554.44,526.58Zm-9.91,9.73a36.68,36.68,0,0,1-5.35,7.17,21.55,21.55,0,0,1,.82-2.58c.66-1.87,1.59-3.63,2.17-5.54a1.14,1.14,0,0,0,0-.41c1.82-3.41,3.34-7,4.89-10.59,1.08.58,2.14,1.19,3.19,1.83C548.39,529.58,546.58,533,544.53,536.31ZM535,537.5c.5-1.72,1.18-3.37,1.68-5.09,1.91-3.42,3.51-7.08,5.11-10.67.68.31,1.37.62,2,1-1.5,3.24-3,6.51-4.63,9.68a40.85,40.85,0,0,1-4.89,7.82A24.12,24.12,0,0,1,535,537.5Zm.43-20.62c.26-.57.52-1.14.79-1.71h0c1.3.49,2.59,1,3.88,1.59-.29.58-.57,1.15-.85,1.73C538,518,536.74,517.42,535.43,516.88Zm-5.82-2.36-1.19-.48.78-1.68c1.21.51,2.43,1,3.64,1.5-.26.55-.53,1.09-.79,1.64Zm-7.1-2.88c.29-.62.59-1.23.88-1.85l2.75,1.24c-.29.58-.57,1.17-.85,1.75ZM517,509.31c.32-.7.66-1.4,1-2.09l2.67,1.29-1,1.95C518.79,510.09,517.89,509.71,517,509.31Zm-5.5-2.43c.37-.8.75-1.59,1.12-2.38.87.46,1.74.91,2.64,1.36-.37.74-.73,1.48-1.09,2.21Zm-6.47,5.9a55.72,55.72,0,0,1-5.2,8.4c.25-.94.59-1.89.91-2.79.69-1.94,1.57-3.82,2.21-5.76,1-2.05,2-4.14,2.91-6.26l2,.94C506.91,509.14,506,511,505,512.78Zm-13.36.94c.46-2.12,1.14-4.22,1.52-6.36a1.35,1.35,0,0,0-1.17-1.75c.3-1.83.56-3.67.8-5.51,1.26.47,2.69,1.14,4.34,1.95-.63,1.86-1.28,3.71-2,5.55a57.15,57.15,0,0,1-4.06,9C491.24,515.65,491.45,514.66,491.65,513.72Zm-5-16.06c0-2.53.1-5.05.3-7.57a4.58,4.58,0,0,1,4,1.1l.09.07c-.32,2.06-.62,4.12-.92,6.18A8.3,8.3,0,0,0,486.6,497.66Zm18.47,2.72c-.41.95-.84,1.9-1.27,2.85l-2.92-1.47-.3-.15c.34-1.09.68-2.18,1-3.27C502.71,499,503.87,499.69,505.07,500.38Zm62.5,36.44-2.07-1.7c.41-.64.83-1.26,1.24-1.88.77.59,1.52,1.17,2.23,1.74a1.42,1.42,0,0,0-.37.33C568.25,535.81,567.92,536.32,567.57,536.82Zm-7.69-6.17c.37-.57.75-1.13,1.13-1.68,1,.72,2,1.43,2.93,2.14-.4.6-.81,1.19-1.2,1.79ZM542.59,520c.26-.57.52-1.14.79-1.7.68.33,1.35.68,2,1-.26.55-.53,1.08-.78,1.63Zm-44.83-19.75a44.3,44.3,0,0,0-4.72-2c.21-1.66.41-3.31.64-4.93,1.51,1.05,3.28,2.22,5.27,3.46Zm-1.14,15.5c.65-2.07,1.52-4.09,2.1-6.18a1.44,1.44,0,0,0-.32-1.48q.83-2.28,1.57-4.61l.06,0c.94.47,1.94,1,3,1.49-.76,1.67-1.52,3.33-2.33,5a58.19,58.19,0,0,1-4.87,8.6C496,517.61,496.34,516.65,496.62,515.73Zm10-11.13,1.14-2.71,2.16,1.18c-.41.83-.82,1.67-1.24,2.51Zm41.26,18c.23-.53.47-1.05.71-1.57,1.18.67,2.34,1.34,3.48,2-.28.48-.56,1-.83,1.46C550.11,523.84,549,523.21,547.87,522.6ZM556,551.49c.74-1.63,1.7-3.14,2.36-4.82a1.35,1.35,0,0,0,.09-.64c2.18-2.95,4.08-6.16,6-9.27l2,1.61,0,0c-2,3.07-4,6.2-6.15,9.19a35,35,0,0,1-5.27,6.14A20.58,20.58,0,0,1,556,551.49Zm16.52-10.93-2.36-1.7c.36-.54.71-1.08,1.08-1.6a1.22,1.22,0,0,0,.14-.34c1,.79,1.88,1.55,2.72,2.25l-1.29,1.6A3.06,3.06,0,0,0,572.52,540.56ZM470.15,513.12c-.41.46-.8.9-1.19,1.31-.38-.4-.71-.76-.93-1l-.13-.1,1.49-1.87C469.64,512,469.89,512.56,470.15,513.12Zm-9.76,9.33c1.54-1.71,3.46-4.08,5.7-6.89l.86,1A47.94,47.94,0,0,1,460.39,522.45Zm11.66-4.77c-.37-.43-1-1.11-1.73-1.83.24-.24.46-.49.7-.75C471.39,516,471.75,516.81,472.05,517.68Zm.27-7-.16.18c-.28-.63-.52-1.27-.77-1.91l.44-.53c.6-.75,1.2-1.56,1.79-2.4.2.81.41,1.61.63,2.42Zm4.22-4.86c-.25-1-.49-2.07-.69-3.11.45-.69.9-1.38,1.34-2.08.14,1.31.32,2.61.53,3.9C477.33,504.94,477,505.35,476.54,505.81Zm3.68-3.88a48.85,48.85,0,0,1-.43-5.26,37.74,37.74,0,0,1,2.47-3.25l1.58-1.17c-.1,2.27-.14,4.54-.14,6.8A25.06,25.06,0,0,0,480.22,501.93Zm6.37-2.26a6.87,6.87,0,0,1,3.19-.37c-.36,2.46-.73,4.91-1.18,7.35a57.37,57.37,0,0,1-2.36,9.63c0-.78,0-1.58,0-2.36.16-1.88.25-3.77.29-5.66,0-.5.07-1,.07-1.49,0-.08,0-.13,0-.19C486.6,504.28,486.59,502,486.59,499.67Zm24.08,8.95c.89.4,1.76.8,2.63,1.18-1,2-2,4-3.07,6a56.63,56.63,0,0,1-5.2,8.41c.25-.94.59-1.89.92-2.79.72-2,1.67-4,2.32-6.1a1.46,1.46,0,0,0-.21-1.45C509,512.14,509.83,510.38,510.67,508.62Zm5.49,2.43,2.66,1.13c-1.1,2.23-2.2,4.45-3.38,6.64a57.48,57.48,0,0,1-5.2,8.41c.25-1,.59-1.89.91-2.8.73-2,1.68-4,2.33-6.1a1.44,1.44,0,0,0-.21-1.44C514.28,515,515.23,513,516.16,511.05Zm-.49,18.89a28.36,28.36,0,0,1,.83-2.76c.66-2,1.58-4,2.17-6a1.54,1.54,0,0,0-.16-1.32c1.12-2.11,2.16-4.29,3.19-6.46l2.75,1.12c-1.18,2.44-2.37,4.87-3.65,7.26A49,49,0,0,1,515.67,529.94Zm6.28,3.8c.18-.9.46-1.81.72-2.68.59-1.95,1.2-6.52,1.71-8.52,1.14-2.21,2.21-4.48,3.24-6.75l1.29.52,2.31.93c-1.38,2.93-2.76,5.87-4.3,8.74A40.78,40.78,0,0,1,522,533.74Zm12.68-15.11c1.3.53,2.57,1.07,3.8,1.6-1.44,3.06-2.88,6.13-4.47,9.11a41.53,41.53,0,0,1-5,7.77,25.69,25.69,0,0,1,.71-2.68c.6-2,1.21-6.55,1.72-8.54a2.18,2.18,0,0,0,0-.25C532.55,523.33,533.59,521,534.63,518.63Zm9.66,27.54a24.75,24.75,0,0,1,1-2.35c.78-1.7,1.79-3.28,2.5-5,2.11-3.37,3.89-7,5.74-10.52.89.61,1.77,1.27,2.65,1.94-2.1,3.17-4.13,6.4-6.37,9.48A39.11,39.11,0,0,1,544.29,546.17Zm25,7.58a39.15,39.15,0,0,1-5.67,5.77,22.92,22.92,0,0,1,1.13-2.14c.88-1.55,2-3,2.78-4.57a1.21,1.21,0,0,0,.11-.39c2.27-2.73,4.36-5.67,6.47-8.48a15.79,15.79,0,0,0,2.07,1.07C573.93,547.93,571.72,550.91,569.32,553.75Z" transform="translate(-5 -5)"/></g><path class="cls-9" d="M763.86,400.42c-2.66.56-5.6,1.77-5.71,4.39-.2,4.81,3.21,14-8.8,27.33s-25.8,14.7-41.27,14c-13-.59-60.63-3.44-75.21-4.33-2.36-.14-3.9.94-6.53,3.2,0,0-7.27,6.41-9.6,14.07a125.55,125.55,0,0,1,23.19-1,4.42,4.42,0,0,1,4.3,4c0,2-1.88,3.51-4.24,3.52a204.23,204.23,0,0,0-23.33,2c2.15,7.47,9.07,14.05,9.07,14.05,3.12,3.36,5.15,2.95,7.52,3.08,12.71.72,51,2.22,77-4.13,16.06-3.92,26.36-1.79,31.48.09,2.23.82,5.62,2.63,7.9,3.3,3,.88,7,1.68,10.34.79,2.27-.6,5.5-2,7.86-1.84l2.87.16a3.89,3.89,0,0,0,4.24-3.88l-.14-15.34c0-2.27-1.1-4.08-2.41-4s-1.45-1.52-.67-3.65c1.55-4.29,3.5-12.39,2.79-25a103,103,0,0,0-4.93-27.35A5.41,5.41,0,0,0,763.86,400.42Z" transform="translate(-5 -5)"/><g class="cls-5"><path class="cls-6" d="M107.06,457.24,77.58,487.9s-8.52-6.79-7.06-9.45,25.53-37.77,27.32-41.54S107.06,457.24,107.06,457.24Z" transform="translate(-5 -5)"/><path class="cls-6" d="M105.59,452.67c.88,2.66,1.47,4.57,1.47,4.57L77.58,487.9s-.69-.55-1.65-1.41Z" transform="translate(-5 -5)"/><path class="cls-6" d="M100.83,435.94l11.81,33.58,3.51,40.81s34,32,36.52,32.84c.82.28,1.07.51,1.05.71,0,.39-1.22,1.15-2.57,1.2-2.88.1-7.47-1.35-12.87-4.16-6.37-3.29-21.38-11.54-30.46-24.46-3.63-5.16-2.18-13.65-1.45-20.05.17-1.51.35-3.07.43-4.66,0-.9.12-1.85.2-2.86.62-8.32.13-20-9.77-37.05a16.62,16.62,0,0,1-1.84-11.47C97.64,435,100.83,435.94,100.83,435.94Z" transform="translate(-5 -5)"/><path class="cls-6" d="M71.42,477c1.34,3.33,5.06,7,7.69,9.31l-1.53,1.58s-8.52-6.79-7.06-9.45C70.65,478.21,71,477.72,71.42,477Z" transform="translate(-5 -5)"/><path class="cls-6" d="M100.05,434c3-2.56,13.12-6.65,20.32-9.36,1.85-.7,10.09-4.95,13.74-7.12,1.78,1.27,5.48,7.7,4.66,16.29l6.9,6.35c10.35,2.38,19.38,7.14,27.19,18-4.93,2.18-12.47,10.71-12.47,10.71h0c-7.21,8.36-17.55,24.24-16.49,35.24,1.3,13.41,5.16,20.43,11,28.92,6.9,10.07-2.25,10.93-2.25,10.93A96.71,96.71,0,0,1,112,516.41c-7.26-9.62-4.43-16.24-4-24.4s2.93-20.79-8.37-40.23C95.9,444.77,95.29,438.15,100.05,434Z" transform="translate(-5 -5)"/><polygon class="cls-6" points="105.12 460.15 110.76 465.41 140.2 434.4 134.56 429.14 105.12 460.15"/><path class="cls-6" d="M100.05,434c3-2.56,13.12-6.65,20.32-9.36.44-.17,1.24-.54,2.25-1,2,8.19,3.48,26.34-17.37,40.11a73.11,73.11,0,0,0-5.66-12C95.9,444.77,95.29,438.15,100.05,434Z" transform="translate(-5 -5)"/><path class="cls-6" d="M150.47,526.09c1.31,2.32,2.78,4.58,4.41,6.95,6.9,10.07-2.25,10.93-2.25,10.93a88.27,88.27,0,0,1-20.34-10C137.17,528.46,144.88,526.65,150.47,526.09Z" transform="translate(-5 -5)"/><polygon class="cls-6" points="104.22 460.03 110.93 466.28 112.97 464.14 106.26 457.89 104.22 460.03"/><polygon class="cls-6" points="136.66 432.82 138.13 434.2 138.85 433.44 137.38 432.07 136.66 432.82"/><polygon class="cls-6" points="135.61 433.93 137.09 435.3 137.8 434.54 136.33 433.17 135.61 433.93"/><polygon class="cls-6" points="134.56 435.03 136.04 436.4 136.75 435.65 135.28 434.27 134.56 435.03"/><polygon class="cls-6" points="133.51 436.13 134.99 437.51 135.71 436.75 134.23 435.38 133.51 436.13"/><polygon class="cls-6" points="132.47 437.24 133.94 438.61 134.66 437.86 133.18 436.48 132.47 437.24"/><polygon class="cls-6" points="131.42 438.34 132.89 439.72 133.61 438.96 132.14 437.59 131.42 438.34"/><polygon class="cls-6" points="130.37 439.45 131.84 440.82 132.56 440.06 131.09 438.69 130.37 439.45"/><polygon class="cls-6" points="129.32 440.55 130.79 441.93 131.51 441.17 130.04 439.8 129.32 440.55"/><polygon class="cls-6" points="128.27 441.66 129.75 443.03 130.46 442.27 128.99 440.9 128.27 441.66"/><polygon class="cls-6" points="127.22 442.76 128.7 444.13 129.42 443.38 127.94 442 127.22 442.76"/><polygon class="cls-6" points="126.17 443.86 127.65 445.24 128.37 444.48 126.89 443.11 126.17 443.86"/><polygon class="cls-6" points="125.13 444.97 126.6 446.34 127.32 445.59 125.84 444.21 125.13 444.97"/><polygon class="cls-6" points="124.08 446.07 125.55 447.45 126.27 446.69 124.8 445.32 124.08 446.07"/><polygon class="cls-6" points="123.03 447.18 124.5 448.55 125.22 447.79 123.75 446.42 123.03 447.18"/><polygon class="cls-6" points="121.98 448.28 123.45 449.65 124.17 448.9 122.7 447.52 121.98 448.28"/><polygon class="cls-6" points="120.93 449.38 122.41 450.76 123.13 450 121.65 448.63 120.93 449.38"/><polygon class="cls-6" points="119.88 450.49 121.36 451.86 122.08 451.11 120.6 449.73 119.88 450.49"/><polygon class="cls-6" points="118.84 451.59 120.31 452.97 121.03 452.21 119.56 450.84 118.84 451.59"/><polygon class="cls-6" points="117.79 452.7 119.26 454.07 119.98 453.31 118.51 451.94 117.79 452.7"/><polygon class="cls-6" points="116.74 453.8 118.21 455.17 118.93 454.42 117.46 453.05 116.74 453.8"/><polygon class="cls-6" points="115.69 454.91 117.17 456.28 117.88 455.52 116.41 454.15 115.69 454.91"/><polygon class="cls-6" points="114.64 456.01 116.12 457.38 116.83 456.63 115.36 455.25 114.64 456.01"/><polygon class="cls-6" points="113.59 457.11 115.07 458.49 115.79 457.73 114.31 456.36 113.59 457.11"/><polygon class="cls-6" points="112.55 458.22 114.02 459.59 114.74 458.83 113.27 457.46 112.55 458.22"/><polygon class="cls-6" points="111.5 459.32 112.97 460.7 113.69 459.94 112.22 458.56 111.5 459.32"/><polygon class="cls-6" points="110.45 460.43 111.92 461.8 112.64 461.04 111.17 459.67 110.45 460.43"/><polygon class="cls-6" points="134.53 431.55 136.01 432.93 136.72 432.17 135.25 430.8 134.53 431.55"/><polygon class="cls-6" points="133.48 432.66 134.96 434.03 135.68 433.28 134.2 431.9 133.48 432.66"/><polygon class="cls-6" points="132.44 433.76 133.91 435.13 134.63 434.38 133.15 433.01 132.44 433.76"/><polygon class="cls-6" points="131.39 434.87 132.86 436.24 133.58 435.48 132.1 434.11 131.39 434.87"/><polygon class="cls-6" points="130.34 435.97 131.81 437.34 132.53 436.59 131.06 435.21 130.34 435.97"/><polygon class="cls-6" points="129.29 437.07 130.76 438.45 131.48 437.69 130.01 436.32 129.29 437.07"/><polygon class="cls-6" points="128.24 438.18 129.72 439.55 130.43 438.8 128.96 437.42 128.24 438.18"/><polygon class="cls-6" points="127.19 439.28 128.67 440.66 129.39 439.9 127.91 438.53 127.19 439.28"/><polygon class="cls-6" points="126.14 440.39 127.62 441.76 128.34 441 126.86 439.63 126.14 440.39"/><polygon class="cls-6" points="125.1 441.49 126.57 442.87 127.29 442.11 125.81 440.74 125.1 441.49"/><polygon class="cls-6" points="124.05 442.6 125.52 443.97 126.24 443.21 124.77 441.84 124.05 442.6"/><polygon class="cls-6" points="123 443.7 124.47 445.07 125.19 444.32 123.72 442.94 123 443.7"/><polygon class="cls-6" points="121.95 444.8 123.42 446.18 124.14 445.42 122.67 444.05 121.95 444.8"/><polygon class="cls-6" points="120.9 445.91 122.38 447.28 123.09 446.52 121.62 445.15 120.9 445.91"/><polygon class="cls-6" points="119.86 447.01 121.33 448.38 122.05 447.63 120.57 446.25 119.86 447.01"/><polygon class="cls-6" points="118.81 448.12 120.28 449.49 121 448.73 119.52 447.36 118.81 448.12"/><polygon class="cls-6" points="117.76 449.22 119.23 450.59 119.95 449.84 118.48 448.46 117.76 449.22"/><polygon class="cls-6" points="116.71 450.32 118.19 451.7 118.9 450.94 117.43 449.57 116.71 450.32"/><polygon class="cls-6" points="115.66 451.43 117.14 452.8 117.85 452.05 116.38 450.67 115.66 451.43"/><polygon class="cls-6" points="114.61 452.53 116.09 453.91 116.81 453.15 115.33 451.77 114.61 452.53"/><polygon class="cls-6" points="113.56 453.63 115.04 455.01 115.76 454.25 114.28 452.88 113.56 453.63"/><polygon class="cls-6" points="112.52 454.74 113.99 456.11 114.71 455.36 113.23 453.98 112.52 454.74"/><polygon class="cls-6" points="111.47 455.84 112.94 457.22 113.66 456.46 112.19 455.09 111.47 455.84"/><polygon class="cls-6" points="110.42 456.95 111.89 458.32 112.61 457.56 111.14 456.19 110.42 456.95"/><polygon class="cls-6" points="109.37 458.05 110.85 459.43 111.56 458.67 110.09 457.3 109.37 458.05"/><polygon class="cls-6" points="108.32 459.16 109.8 460.53 110.52 459.77 109.04 458.4 108.32 459.16"/><polygon class="cls-6" points="109.74 460.48 110.14 460.85 137.43 432.12 137.03 431.74 109.74 460.48"/><polygon class="cls-6" points="133.09 433.08 136.33 436.1 138.89 433.39 135.65 430.37 133.09 433.08"/><polygon class="cls-6" points="134.34 433.84 135.48 434.91 137.5 432.78 136.36 431.71 134.34 433.84"/><path class="cls-6" d="M131.61,442.37c-2.58,2.71-2.3,5-.7,6.48s3.91,1.63,6.49-1.08,2.85-8.75,2.85-8.75S134.19,439.65,131.61,442.37Z" transform="translate(-5 -5)"/><path class="cls-6" d="M132.51,447.16c1.31,1.22,2.87,0,3.68-.89,1.16-1.22,1.65-3.5,1.85-4.92-1.43.28-3.7.9-4.85,2.12C132.37,444.33,131.2,445.94,132.51,447.16Z" transform="translate(-5 -5)"/><path class="cls-10" d="M108,492c.42-8.16,2.93-20.79-8.37-40.23-3.69-7-4.3-13.63.46-17.75a20.48,20.48,0,0,1,3.49-2.2c-2.86,8.77,3.38,21.84,8.7,38.44,6.64,20.72-2.85,33.4,6.21,46.12,7.11,10,28.46,21.81,37.29,26.41a7.06,7.06,0,0,1-3.11,1.17A96.71,96.71,0,0,1,112,516.41C104.71,506.79,107.54,500.17,108,492Z" transform="translate(-5 -5)"/></g><g class="cls-5"><path class="cls-7" d="M298.3,474.37l14.29,18.27s-3.22,3-4.46,2-17.64-17.43-19.41-18.82S298.3,474.37,298.3,474.37Z" transform="translate(-5 -5)"/><path class="cls-7" d="M296.15,474.41c1.26,0,2.15,0,2.15,0l14.29,18.27s-.26.24-.67.57Z" transform="translate(-5 -5)"/><path class="cls-7" d="M288.28,474.24l15.82-.73,19.17,4.2s15.16-11.4,15.56-12.46c.13-.34.25-.43.34-.39a2,2,0,0,1,.55,1.38,10.87,10.87,0,0,1-2,5.46c-1.57,2.52-5.5,8.4-11.6,10.81-2.44,1-6.42-.93-9.42-2.19-.71-.3-1.44-.61-2.19-.88l-1.34-.5a26.33,26.33,0,0,0-17.44-.72,7.79,7.79,0,0,1-5.39-.79C287.83,475.61,288.28,474.24,288.28,474.24Z" transform="translate(-5 -5)"/><path class="cls-7" d="M307.45,494a9.31,9.31,0,0,0,4.4-2.28l.74.95s-3.22,3-4.46,2C308,494.51,307.78,494.29,307.45,494Z" transform="translate(-5 -5)"/><path class="cls-7" d="M287.38,474.33c-1.19-1.77-3.07-7.12-4.32-10.9-.32-1-2.28-5.45-3.29-7.48.61-.66,3.64-1.48,7.67.14l3-2.33c1.16-4.53,3.43-8.09,8.55-10.21,1,2.63,5,7.4,5,7.4h0c3.9,4.6,11.31,11.74,16.48,12.82,6.3,1.32,9.61.51,13.62-1,4.76-1.8,5.13,2.62,5.13,2.62a30.38,30.38,0,0,1-13.1,15.17c-4.55,2-7.64-.25-11.47-1.62s-9.76-4.36-18.93-1.83C292.41,477.83,289.3,477.16,287.38,474.33Z" transform="translate(-5 -5)"/><polygon class="cls-7" points="297.03 469.07 299.52 467.17 285.08 448.87 282.59 450.77 297.03 469.07"/><path class="cls-7" d="M287.38,474.33c-1.19-1.77-3.07-7.12-4.32-10.9-.07-.23-.24-.66-.47-1.2,3.85.22,12.38,2.14,18.77,13.92a27.21,27.21,0,0,0-5.65,1C292.41,477.83,289.3,477.16,287.38,474.33Z" transform="translate(-5 -5)"/><path class="cls-7" d="M330.8,463.83a31.29,31.29,0,0,0,3.28-1.07c4.76-1.8,5.13,2.62,5.13,2.62a29,29,0,0,1-4.79,8.13A17.69,17.69,0,0,1,330.8,463.83Z" transform="translate(-5 -5)"/><polygon class="cls-7" points="296.97 469.47 299.94 467.21 298.94 465.95 295.97 468.2 296.97 469.47"/><polygon class="cls-7" points="284.32 450.31 284.97 449.81 284.62 449.36 283.97 449.86 284.32 450.31"/><polygon class="cls-7" points="284.84 450.96 285.49 450.46 285.13 450.01 284.48 450.51 284.84 450.96"/><polygon class="cls-7" points="285.35 451.61 286 451.11 285.65 450.67 285 451.16 285.35 451.61"/><polygon class="cls-7" points="285.87 452.26 286.52 451.76 286.16 451.32 285.51 451.81 285.87 452.26"/><polygon class="cls-7" points="286.38 452.91 287.03 452.42 286.68 451.97 286.03 452.47 286.38 452.91"/><polygon class="cls-7" points="286.89 453.56 287.55 453.07 287.19 452.62 286.54 453.12 286.89 453.56"/><polygon class="cls-7" points="287.41 454.22 288.06 453.72 287.71 453.27 287.06 453.77 287.41 454.22"/><polygon class="cls-7" points="287.92 454.87 288.57 454.37 288.22 453.93 287.57 454.42 287.92 454.87"/><polygon class="cls-7" points="288.44 455.52 289.09 455.02 288.74 454.58 288.08 455.07 288.44 455.52"/><polygon class="cls-7" points="288.95 456.17 289.6 455.68 289.25 455.23 288.6 455.72 288.95 456.17"/><polygon class="cls-7" points="289.47 456.82 290.12 456.33 289.76 455.88 289.11 456.38 289.47 456.82"/><polygon class="cls-7" points="289.98 457.47 290.63 456.98 290.28 456.53 289.63 457.03 289.98 457.47"/><polygon class="cls-7" points="290.5 458.13 291.15 457.63 290.79 457.18 290.14 457.68 290.5 458.13"/><polygon class="cls-7" points="291.01 458.78 291.66 458.28 291.31 457.83 290.66 458.33 291.01 458.78"/><polygon class="cls-7" points="291.52 459.43 292.18 458.93 291.82 458.49 291.17 458.98 291.52 459.43"/><polygon class="cls-7" points="292.04 460.08 292.69 459.58 292.34 459.14 291.69 459.63 292.04 460.08"/><polygon class="cls-7" points="292.55 460.73 293.2 460.24 292.85 459.79 292.2 460.29 292.55 460.73"/><polygon class="cls-7" points="293.07 461.38 293.72 460.89 293.37 460.44 292.71 460.94 293.07 461.38"/><polygon class="cls-7" points="293.58 462.04 294.23 461.54 293.88 461.09 293.23 461.59 293.58 462.04"/><polygon class="cls-7" points="294.1 462.69 294.75 462.19 294.39 461.75 293.74 462.24 294.1 462.69"/><polygon class="cls-7" points="294.61 463.34 295.26 462.84 294.91 462.4 294.26 462.89 294.61 463.34"/><polygon class="cls-7" points="295.12 463.99 295.77 463.49 295.42 463.05 294.77 463.54 295.12 463.99"/><polygon class="cls-7" points="295.64 464.64 296.29 464.15 295.94 463.7 295.29 464.2 295.64 464.64"/><polygon class="cls-7" points="296.15 465.29 296.8 464.8 296.45 464.35 295.8 464.85 296.15 465.29"/><polygon class="cls-7" points="296.67 465.95 297.32 465.45 296.97 465 296.32 465.5 296.67 465.95"/><polygon class="cls-7" points="297.18 466.6 297.83 466.1 297.48 465.65 296.83 466.15 297.18 466.6"/><polygon class="cls-7" points="283.72 451.12 284.37 450.63 284.02 450.18 283.37 450.68 283.72 451.12"/><polygon class="cls-7" points="284.23 451.78 284.88 451.28 284.53 450.83 283.88 451.33 284.23 451.78"/><polygon class="cls-7" points="284.75 452.43 285.4 451.93 285.05 451.49 284.39 451.98 284.75 452.43"/><polygon class="cls-7" points="285.26 453.08 285.91 452.58 285.56 452.14 284.91 452.63 285.26 453.08"/><polygon class="cls-7" points="285.78 453.73 286.43 453.24 286.07 452.79 285.42 453.28 285.78 453.73"/><polygon class="cls-7" points="286.29 454.38 286.94 453.89 286.59 453.44 285.94 453.94 286.29 454.38"/><polygon class="cls-7" points="286.8 455.03 287.45 454.54 287.1 454.09 286.45 454.59 286.8 455.03"/><polygon class="cls-7" points="287.32 455.69 287.97 455.19 287.62 454.74 286.97 455.24 287.32 455.69"/><polygon class="cls-7" points="287.83 456.34 288.48 455.84 288.13 455.39 287.48 455.89 287.83 456.34"/><polygon class="cls-7" points="288.35 456.99 289 456.49 288.65 456.05 288 456.54 288.35 456.99"/><polygon class="cls-7" points="288.86 457.64 289.51 457.14 289.16 456.7 288.51 457.19 288.86 457.64"/><polygon class="cls-7" points="289.38 458.29 290.03 457.8 289.68 457.35 289.02 457.85 289.38 458.29"/><polygon class="cls-7" points="289.89 458.94 290.54 458.45 290.19 458 289.54 458.5 289.89 458.94"/><polygon class="cls-7" points="290.4 459.6 291.06 459.1 290.7 458.65 290.05 459.15 290.4 459.6"/><polygon class="cls-7" points="290.92 460.25 291.57 459.75 291.22 459.31 290.57 459.8 290.92 460.25"/><polygon class="cls-7" points="291.43 460.9 292.08 460.4 291.73 459.96 291.08 460.45 291.43 460.9"/><polygon class="cls-7" points="291.95 461.55 292.6 461.05 292.25 460.61 291.6 461.1 291.95 461.55"/><polygon class="cls-7" points="292.46 462.2 293.11 461.71 292.76 461.26 292.11 461.76 292.46 462.2"/><polygon class="cls-7" points="292.98 462.85 293.63 462.36 293.27 461.91 292.63 462.41 292.98 462.85"/><polygon class="cls-7" points="293.49 463.51 294.14 463.01 293.79 462.56 293.14 463.06 293.49 463.51"/><polygon class="cls-7" points="294.01 464.16 294.66 463.66 294.31 463.21 293.65 463.71 294.01 464.16"/><polygon class="cls-7" points="294.52 464.81 295.17 464.31 294.82 463.87 294.17 464.36 294.52 464.81"/><polygon class="cls-7" points="295.03 465.46 295.69 464.96 295.33 464.52 294.68 465.01 295.03 465.46"/><polygon class="cls-7" points="295.55 466.11 296.2 465.62 295.85 465.17 295.2 465.67 295.55 466.11"/><polygon class="cls-7" points="296.06 466.76 296.71 466.27 296.36 465.82 295.71 466.32 296.06 466.76"/><polygon class="cls-7" points="296.58 467.42 297.23 466.92 296.88 466.47 296.23 466.97 296.58 467.42"/><polygon class="cls-7" points="297.2 466.94 297.38 466.8 283.99 449.84 283.82 449.98 297.2 466.94"/><polygon class="cls-7" points="284.43 452.02 285.86 450.93 284.6 449.34 283.17 450.43 284.43 452.02"/><polygon class="cls-7" points="284.79 451.54 285.3 451.16 284.31 449.9 283.8 450.29 284.79 451.54"/><path class="cls-7" d="M291.42,460.69c1.26,1.6,2.33,1.79,3,1.25s.78-1.6-.48-3.2a10.68,10.68,0,0,0-4.1-2.6A10.33,10.33,0,0,0,291.42,460.69Z" transform="translate(-5 -5)"/><path class="cls-7" d="M293.67,461c.58-.44,0-1.35-.4-1.86a6.38,6.38,0,0,0-2.31-1.57,6.29,6.29,0,0,0,1,2.58C292.34,460.61,293.1,461.39,293.67,461Z" transform="translate(-5 -5)"/><path class="cls-11" d="M314.64,478.93c-3.83-1.36-9.76-4.36-18.93-1.83-3.3.73-6.41.06-8.33-2.77a14.55,14.55,0,0,1-1-1.95c4.11,2.6,10.27,1.54,18.08,1.42,9.76-.15,15.68,6.14,21.68,3.7,4.72-1.91,10.35-10.26,12.55-13.74a4.24,4.24,0,0,1,.54,1.62,30.38,30.38,0,0,1-13.1,15.17C321.56,482.59,318.47,480.3,314.64,478.93Z" transform="translate(-5 -5)"/></g><g class="cls-5"><path class="cls-6" d="M61.68,411.62l-25,9.75s-2.5-5.13-.92-6.19,25-14.14,27.14-15.7S61.68,411.62,61.68,411.62Z" transform="translate(-5 -5)"/><path class="cls-6" d="M62.27,409c-.33,1.53-.59,2.61-.59,2.61l-25,9.75s-.21-.42-.46-1Z" transform="translate(-5 -5)"/><path class="cls-6" d="M64.78,399.58,61,419,50.5,440.38s8.5,23,9.59,23.89c.35.3.41.47.34.57a2.13,2.13,0,0,1-1.73.1c-1.57-.52-3.58-2.16-5.62-4.66-2.4-2.93-7.93-10.08-8.88-18.43-.38-3.34,3-7.37,5.28-10.47.55-.73,1.12-1.49,1.64-2.28.3-.45.62-.92,1-1.42,2.84-4.1,6.11-10.14,6-20.74a9.55,9.55,0,0,1,2.48-6.19C63.37,398.47,64.78,399.58,64.78,399.58Z" transform="translate(-5 -5)"/><path class="cls-6" d="M36.68,414.62c-.3,2,.58,4.56,1.29,6.25l-1.29.5s-2.5-5.13-.92-6.19C35.9,415.08,36.22,414.89,36.68,414.62Z" transform="translate(-5 -5)"/><path class="cls-6" d="M65,398.46c2.36-.72,9-.79,13.67-.74,1.2,0,6.88-.52,9.49-.9.57,1,.6,5-2.43,9.19l1.76,4.59c4.82,3.25,8.2,7.45,9.1,14.5-3.29.13-9.9,3-9.9,3s6.38-2.83,0,0S70,436.91,67.2,442.71c-3.36,7.06-3.42,11.39-2.88,16.85.65,6.48-4.49,5.11-4.49,5.11a42.76,42.76,0,0,1-13.4-22c-1-6.32,2.54-9.12,5.23-13.18s7.84-10,7.68-22.08C59.48,403.09,61.16,399.61,65,398.46Z" transform="translate(-5 -5)"/><polygon class="cls-6" points="55.92 411.25 57.35 415.03 82.43 405.11 81.01 401.32 55.92 411.25"/><path class="cls-6" d="M65,398.46c2.36-.72,9-.79,13.67-.74.29,0,.83,0,1.51-.08C78.74,402.2,74,411.7,58.75,414.57a35.74,35.74,0,0,0,.59-7.19C59.48,403.09,61.16,399.61,65,398.46Z" transform="translate(-5 -5)"/><path class="cls-6" d="M64.07,455.16c0,1.44.1,2.87.25,4.4.65,6.48-4.49,5.11-4.49,5.11A39.79,39.79,0,0,1,52,455.56C56.25,453.74,60.92,454.34,64.07,455.16Z" transform="translate(-5 -5)"/><polygon class="cls-6" points="55.48 411.01 57.18 415.51 58.91 414.82 57.22 410.32 55.48 411.01"/><polygon class="cls-6" points="81.02 403.6 81.39 404.59 82 404.35 81.63 403.36 81.02 403.6"/><polygon class="cls-6" points="80.13 403.96 80.5 404.94 81.11 404.7 80.74 403.71 80.13 403.96"/><polygon class="cls-6" points="79.23 404.31 79.61 405.3 80.22 405.06 79.84 404.07 79.23 404.31"/><polygon class="cls-6" points="78.34 404.66 78.71 405.65 79.32 405.41 78.95 404.42 78.34 404.66"/><polygon class="cls-6" points="77.45 405.02 77.82 406.01 78.43 405.76 78.06 404.77 77.45 405.02"/><polygon class="cls-6" points="76.55 405.37 76.92 406.36 77.54 406.12 77.17 405.13 76.55 405.37"/><polygon class="cls-6" points="75.66 405.72 76.03 406.71 76.64 406.47 76.27 405.48 75.66 405.72"/><polygon class="cls-6" points="74.77 406.08 75.14 407.07 75.75 406.82 75.38 405.84 74.77 406.08"/><polygon class="cls-6" points="73.87 406.43 74.25 407.42 74.86 407.18 74.48 406.19 73.87 406.43"/><polygon class="cls-6" points="72.98 406.79 73.35 407.77 73.96 407.53 73.59 406.54 72.98 406.79"/><polygon class="cls-6" points="72.09 407.14 72.46 408.13 73.07 407.88 72.7 406.9 72.09 407.14"/><polygon class="cls-6" points="71.19 407.49 71.56 408.48 72.18 408.24 71.81 407.25 71.19 407.49"/><polygon class="cls-6" points="70.3 407.85 70.67 408.83 71.28 408.59 70.91 407.6 70.3 407.85"/><polygon class="cls-6" points="69.41 408.2 69.78 409.19 70.39 408.94 70.02 407.96 69.41 408.2"/><polygon class="cls-6" points="68.51 408.55 68.89 409.54 69.5 409.3 69.13 408.31 68.51 408.55"/><polygon class="cls-6" points="67.62 408.91 67.99 409.89 68.6 409.65 68.23 408.66 67.62 408.91"/><polygon class="cls-6" points="66.73 409.26 67.1 410.25 67.71 410.01 67.34 409.02 66.73 409.26"/><polygon class="cls-6" points="65.83 409.61 66.21 410.6 66.82 410.36 66.45 409.37 65.83 409.61"/><polygon class="cls-6" points="64.94 409.97 65.31 410.95 65.92 410.71 65.55 409.72 64.94 409.97"/><polygon class="cls-6" points="64.05 410.32 64.42 411.31 65.03 411.07 64.66 410.08 64.05 410.32"/><polygon class="cls-6" points="63.15 410.67 63.53 411.66 64.14 411.42 63.77 410.43 63.15 410.67"/><polygon class="cls-6" points="62.26 411.03 62.63 412.01 63.24 411.77 62.87 410.78 62.26 411.03"/><polygon class="cls-6" points="61.37 411.38 61.74 412.37 62.35 412.13 61.98 411.14 61.37 411.38"/><polygon class="cls-6" points="60.48 411.73 60.85 412.72 61.46 412.48 61.09 411.49 60.48 411.73"/><polygon class="cls-6" points="59.58 412.09 59.95 413.08 60.56 412.83 60.19 411.85 59.58 412.09"/><polygon class="cls-6" points="58.69 412.44 59.06 413.43 59.67 413.19 59.3 412.2 58.69 412.44"/><polygon class="cls-6" points="80.27 402.54 80.64 403.53 81.25 403.29 80.88 402.3 80.27 402.54"/><polygon class="cls-6" points="79.37 402.89 79.75 403.88 80.36 403.64 79.98 402.65 79.37 402.89"/><polygon class="cls-6" points="78.48 403.25 78.85 404.23 79.47 403.99 79.09 403 78.48 403.25"/><polygon class="cls-6" points="77.59 403.6 77.96 404.59 78.57 404.35 78.2 403.36 77.59 403.6"/><polygon class="cls-6" points="76.69 403.95 77.07 404.94 77.68 404.7 77.31 403.71 76.69 403.95"/><polygon class="cls-6" points="75.8 404.31 76.17 405.3 76.78 405.05 76.41 404.06 75.8 404.31"/><polygon class="cls-6" points="74.91 404.66 75.28 405.65 75.89 405.41 75.52 404.42 74.91 404.66"/><polygon class="cls-6" points="74.01 405.01 74.39 406 75 405.76 74.63 404.77 74.01 405.01"/><polygon class="cls-6" points="73.12 405.37 73.49 406.36 74.11 406.11 73.73 405.12 73.12 405.37"/><polygon class="cls-6" points="72.23 405.72 72.6 406.71 73.21 406.47 72.84 405.48 72.23 405.72"/><polygon class="cls-6" points="71.33 406.07 71.71 407.06 72.32 406.82 71.94 405.83 71.33 406.07"/><polygon class="cls-6" points="70.44 406.43 70.81 407.42 71.42 407.17 71.05 406.19 70.44 406.43"/><polygon class="cls-6" points="69.55 406.78 69.92 407.77 70.53 407.53 70.16 406.54 69.55 406.78"/><polygon class="cls-6" points="68.65 407.13 69.03 408.12 69.64 407.88 69.27 406.89 68.65 407.13"/><polygon class="cls-6" points="67.76 407.49 68.13 408.48 68.75 408.23 68.37 407.25 67.76 407.49"/><polygon class="cls-6" points="66.87 407.84 67.24 408.83 67.85 408.59 67.48 407.6 66.87 407.84"/><polygon class="cls-6" points="65.97 408.19 66.35 409.18 66.96 408.94 66.59 407.95 65.97 408.19"/><polygon class="cls-6" points="65.08 408.55 65.45 409.54 66.06 409.3 65.69 408.31 65.08 408.55"/><polygon class="cls-6" points="64.19 408.9 64.56 409.89 65.17 409.65 64.8 408.66 64.19 408.9"/><polygon class="cls-6" points="63.3 409.25 63.67 410.24 64.28 410 63.91 409.01 63.3 409.25"/><polygon class="cls-6" points="62.4 409.61 62.77 410.6 63.38 410.36 63.01 409.37 62.4 409.61"/><polygon class="cls-6" points="61.51 409.96 61.88 410.95 62.49 410.71 62.12 409.72 61.51 409.96"/><polygon class="cls-6" points="60.62 410.31 60.99 411.3 61.6 411.06 61.23 410.07 60.62 410.31"/><polygon class="cls-6" points="59.72 410.67 60.09 411.66 60.71 411.42 60.33 410.43 59.72 410.67"/><polygon class="cls-6" points="58.83 411.02 59.2 412.01 59.81 411.77 59.44 410.78 58.83 411.02"/><polygon class="cls-6" points="57.94 411.38 58.31 412.36 58.92 412.12 58.55 411.13 57.94 411.38"/><polygon class="cls-6" points="58.29 412.33 58.4 412.6 81.64 403.4 81.54 403.13 58.29 412.33"/><polygon class="cls-6" points="79.04 403.03 79.85 405.2 82.04 404.33 81.22 402.16 79.04 403.03"/><polygon class="cls-6" points="79.47 403.66 79.76 404.43 81.48 403.75 81.19 402.98 79.47 403.66"/><path class="cls-6" d="M79.28,408.92c-2.2.87-2.73,2.08-2.33,3.16s1.6,1.6,3.79.73,4.17-3.88,4.17-3.88S81.48,408.06,79.28,408.92Z" transform="translate(-5 -5)"/><path class="cls-6" d="M78.31,411.54c.33.88,1.55.55,2.24.27A7,7,0,0,0,83,409.68a6.73,6.73,0,0,0-3.23.12C79.1,410.07,78,410.66,78.31,411.54Z" transform="translate(-5 -5)"/><path class="cls-10" d="M51.66,429.46c2.69-4.06,7.84-10,7.68-22.08.14-4.29,1.82-7.77,5.61-8.92a14.84,14.84,0,0,1,2.52-.43c-4.17,3.89-4.78,11.76-7,21.23C57.8,431.1,48.9,435.66,49.9,443.91c.78,6.48,8.61,16.7,11.93,20.78a4.77,4.77,0,0,1-2,0,42.76,42.76,0,0,1-13.4-22C45.46,436.32,49,433.52,51.66,429.46Z" transform="translate(-5 -5)"/></g><g class="cls-5"><path class="cls-6" d="M822.86,530.36s5.77-19.68,12-27.1c6-7.09,13.17-8.8,14.5-10.59,2.56-3.44-.57-9.55-.57-9.55s-1.89-11.93-50.45,8.84c-3.7.91-14,2.48-17.55,10.25a58.71,58.71,0,0,0,16.56,32.55c2.6,2.58,4.81,2.47,5.38.55s-2.08-9.26,3-11.43,15,7.2,15,7.2Z" transform="translate(-5 -5)"/><path class="cls-6" d="M818.86,484.13c-5.69,1.85-12.46,4.39-20.5,7.83-1.44.36-3.9.81-6.56,1.7,2.26,1,4.34,1.5,5.63.63,4.14-2.78,21.41-8.7,21.41-8.7S818.85,485,818.86,484.13Z" transform="translate(-5 -5)"/><path class="cls-6" d="M820.75,531.08l2.11-.72s3.62-12.34,8.23-21.16c-3.55-1.78-10.16-3.39-14.31,6-1.64,3.72-3,7-4.25,9.91A43.7,43.7,0,0,1,820.75,531.08Z" transform="translate(-5 -5)"/><path class="cls-6" d="M797.32,534.71l0,0c2.6,2.58,4.81,2.47,5.38.55s-2.08-9.26,3-11.43,15,7.2,15,7.2l1.76-.6c-3-4-12-14.52-21.06-10.48C795.94,522.45,795.67,528.65,797.32,534.71Z" transform="translate(-5 -5)"/><path class="cls-6" d="M780.81,502.21c.23,1.52.51,3,.84,4.43a46.26,46.26,0,0,0,31.85-1.7c12.42-5.48,21.54-17.62,26.29-25.23a40,40,0,0,0-4.46.37,55.71,55.71,0,0,1-22.2,16.74c-9.58,4-18.76,1.32-24.87-1.73A15,15,0,0,0,780.81,502.21Z" transform="translate(-5 -5)"/><path class="cls-6" d="M813.76,485.19c3.43,3.75,4.7,3.58,8.34,2.18,4-1.56,18.07-3.47,20.92-2.75s3.38,3.49,4.82,5.68a5.4,5.4,0,0,0,2.4,2c1.65-3.47-.64-8.55-1-9.36a3.91,3.91,0,0,0-1.06-1.68c-2.26-2.18-9.45-4.68-32.16,3.1Z" transform="translate(-5 -5)"/><path class="cls-6" d="M780.4,501.78l-.07.16,0,.21c.24,1.62.54,3.18.89,4.69,1.71-1.72,8.38-6,13.93-8,4.86-1.8,4-6,3.46-7.67l-.51.22-1.22.28a52.07,52.07,0,0,0-5.65,1.52C785.72,495.06,782.17,497.88,780.4,501.78Z" transform="translate(-5 -5)"/><path class="cls-6" d="M815.08,503.35l14.8,10.25a55.71,55.71,0,0,1,4-7.43L823.46,499A9.38,9.38,0,0,0,815.08,503.35Z" transform="translate(-5 -5)"/><path class="cls-6" d="M842.28,498.06l-8.85-6.13a9.4,9.4,0,0,0-8.38,4.36l10.67,7.39A30,30,0,0,1,842.28,498.06Z" transform="translate(-5 -5)"/><path class="cls-6" d="M825.42,525c.81-2.35,1.84-5.19,3-8.07l-14.76-10.21a9.39,9.39,0,0,0-8.39,4.36Z" transform="translate(-5 -5)"/><path class="cls-6" d="M825.42,525c.81-2.35,1.84-5.19,3-8.07l-6.65-4.6c-1.41,2.14-2.85,4.53-4.3,7.19Z" transform="translate(-5 -5)"/><path class="cls-6" d="M829.88,513.6a55.71,55.71,0,0,1,4-7.43l-4.71-3.26a64.92,64.92,0,0,0-5.3,6.49Z" transform="translate(-5 -5)"/><path class="cls-6" d="M835.72,503.68a30,30,0,0,1,6.56-5.62l-3.74-2.59a33.32,33.32,0,0,0-7.17,5.2Z" transform="translate(-5 -5)"/></g><g class="cls-5"><path class="cls-6" d="M157.81,426.15s-5.45,5.39-2.06,7.49,15.5,7.64,17.95,7.6c2-4.63,4.28-4.39,9.77-5s17.12-1.24,28.26,2.77c8.35,3,18.82,11.38,24.8,17,2,1.89,5.77,8.66,11,10.28C252.15,463,262,447.75,259,444.45s-28.22-9.05-28.22-9.05l-20.48-8.53L189,422.6l-9.29-1.22L169.62,423Z" transform="translate(-5 -5)"/><path class="cls-6" d="M259,444.45c3,3.3-6.87,18.57-11.48,21.92a12,12,0,0,1-4.29-2.57c-1.79-5.1-2.42-13.16,2.87-24.45C252,441.06,257.69,443,259,444.45Z" transform="translate(-5 -5)"/><path class="cls-6" d="M259.61,445.64c-2.37-1.33-10.75-4.11-18.49-5.45-20.77-3.6-26.51-7.1-32.58-10.14a71.31,71.31,0,0,0-10.95-4.7,55.43,55.43,0,0,0-41.16,2.49,1.6,1.6,0,0,1-.08-1.18c.33-.15,3.16-1.61,6.68-3,6.07-2.41,19.4-6.59,37-1.13,5,1.55,8,2.39,11.06,3.91,4.54,2.28,9.21,4.63,20.59,7.21l1.68-3.23s22.66,2.66,30.6,8.11C262,443.6,259.61,445.64,259.61,445.64Z" transform="translate(-5 -5)"/><path class="cls-6" d="M262.64,441.45c-11.69-5.16-26.15-7.46-30.76-8.19l1.48-2.84s22.66,2.66,30.6,8.11A25.72,25.72,0,0,1,262.64,441.45Z" transform="translate(-5 -5)"/><path class="cls-6" d="M170.2,440.13a7,7,0,0,1-1,1.06,115.39,115.39,0,0,1-13.2-6,6.74,6.74,0,0,1,.73-1.26,9.27,9.27,0,0,1,10.9-2.53C171.38,433.11,172.51,437,170.2,440.13Z" transform="translate(-5 -5)"/><path class="cls-6" d="M159.33,435.12c.87-1.18,3.11-1.71,5.1-1.23a7.92,7.92,0,0,1,1.1.38,4.3,4.3,0,0,1,2.41,2.56,2.39,2.39,0,0,1-.31,2.11,3.4,3.4,0,0,1-1.47,1c-2.43-1-5-2.21-7.22-3.29A2.19,2.19,0,0,1,159.33,435.12Z" transform="translate(-5 -5)"/></g><g class="cls-5"><path class="cls-6" d="M750.57,511.65a2.83,2.83,0,0,1-1.65-1.2l2.31-11.63s.1.84.88.12Z" transform="translate(-5 -5)"/><path class="cls-6" d="M763.09,556.31s0-9.48,3.26-14.39c0,0,9.26-17.24,2.63-21.77,0,0-15.81-7.34-21.23-10.44,0,0-7.18-4.8-18.73-14.09-3.78-3-6-3.61-18.8-4.32,0,0-22.56-2-24.51.63,0,0-2.59,3.21,4.19,7.61a85.5,85.5,0,0,0,10,4.87s9.85,2.72,13.63,11.71c.74,1.76,4.49,7.37,5.54,15.77a34.87,34.87,0,0,1-.86,15.14s30.84,5.22,35.26,12C753.51,559.07,762.53,568.88,763.09,556.31Z" transform="translate(-5 -5)"/><path class="cls-6" d="M770.58,522s-4.52-18.53-4.22-19.86c0,0-12.14-3.52-14.29-2.86l-1.45,12S766.78,519.13,770.58,522Z" transform="translate(-5 -5)"/><path class="cls-6" d="M766.31,502.25s.31-2.53-3.36-2.95l-10.69-1.62-.19,1.58Z" transform="translate(-5 -5)"/><path class="cls-6" d="M752.07,499.26l.19-1.58s0,.12-1,.47l-.14,1S751.13,499.29,752.07,499.26Z" transform="translate(-5 -5)"/><path class="cls-6" d="M720.52,530.66a3.59,3.59,0,0,0,4.11,1.43l19.11-5.36,17.2,10.51a3.48,3.48,0,0,0,4.3-.22c2-2.3-.77-4.37-.77-4.37a2.53,2.53,0,0,0-3.39.16,2.24,2.24,0,0,0,1.87,3.3c1-.31.12-1,.12-1-1.64-.43-.61-2-.61-2,2.42-.19,2.24,2.4,2.24,2.4-.65,2.69-3.44.61-3.44.61l-17.42-10.35L724.56,531s-3.19,1.23-3.18-1.55c0,0,.44-2.56,2.73-1.7,0,0,.63,1.79-1.05,1.75,0,0-1,.37-.11.95,0,0,2.91.54,2.59-2.67a2.6,2.6,0,0,0-3.24-1.1S719.11,527.88,720.52,530.66Z" transform="translate(-5 -5)"/><path class="cls-6" d="M731.76,541.07c.37,1.73,2.76,1.3,2.76,1.3,2.24-.85,7.63-2.41,7.63-2.41s4,2.9,6,4.35c0,0,2.2,1.08,3-.49,0,0,.54-1.28-1.45-2.53l-7.11-4.86-8.42,2.67C731.54,539.68,731.76,541.07,731.76,541.07Zm1.68-.68,9-2.59,7.26,4.89s.76,1.57-.95.79L742.27,539l-8.09,2.43C732.33,541.69,733.44,540.39,733.44,540.39Z" transform="translate(-5 -5)"/><path class="cls-6" d="M733.63,525.53c.38,1.73,2.76,1.3,2.76,1.3,2.24-.85,7.64-2.41,7.64-2.41s4,2.9,6,4.34c0,0,2.2,1.09,3-.48,0,0,.54-1.28-1.45-2.53l-7.11-4.86L736,523.56C733.41,524.15,733.63,525.53,733.63,525.53Zm1.69-.69,9-2.58,7.26,4.89s.76,1.57-1,.79l-6.44-4.49-8.09,2.43C734.21,526.15,735.32,524.84,735.32,524.84Z" transform="translate(-5 -5)"/><path class="cls-6" d="M723.32,538.59s3.11,2.7,5.12-1c0,0,.32-3.76-3.56-2.24,0,0-1.21,1.44.1,1.89a1.08,1.08,0,0,0,.58-.51.83.83,0,0,1,1.36,0s.49.78-1.06,1.27c0,0-2.16.15-2-1.9A3,3,0,0,1,726.6,534l3-.88-.36,3s1.25,2.89,3.44.49l.55-4.56.43-.12-.33,2.79s1.24,2.89,3.43.49l.53-4.35.6-.18-.32,2.69s1.25,2.88,3.44.48l.51-4.24,2-.58,1.75,1.1-.51,4.25c1.55,2.93,3.44.49,3.44.49l.32-2.69.48.3-.53,4.39c1.55,2.93,3.44.49,3.44.49l.34-2.84.47.3-.55,4.55c1.55,2.93,3.44.49,3.44.49l.36-3,2.67,1.68a3.14,3.14,0,0,1,2.19,2.83c-.37,2-2.42,1.27-2.42,1.27-1.38-.91-.73-1.52-.73-1.52a.85.85,0,0,1,1.32.38,1.17,1.17,0,0,0,.44.64c1.37-.07.54-1.8.54-1.8-3.39-2.55-4,1.18-4,1.18a3.21,3.21,0,0,0,4.7,2.42c3.48-2.54.1-5.67.1-5.67l-17.14-10.46-19,5.32S720.56,535.16,723.32,538.59Zm24.09-4.12c-.93,1.24-1.84-.25-1.84-.25l.43-3.63,1.74,1.09Zm3.71,2.48c-.93,1.25-1.83-.25-1.83-.25l.43-3.77,1.75,1.1Zm4.07-.55-.37,3.06c-.93,1.24-1.84-.25-1.84-.25l.46-3.94,1.82,1.14Zm-23.35-.2s-1.23,1.2-1.83-.26l.37-3.07h-.07l2-.59Zm4.09-1.39s-1.23,1.19-1.83-.27l.35-2.89,1.95-.58Zm4.25-1.36s-1.23,1.19-1.83-.27l.33-2.78,2-.57Z" transform="translate(-5 -5)"/><path class="cls-6" d="M730.72,497s-4.59-3.11-8.46-3.69c0,0-7.73-1.05-11.51-1.15-2.42-.06-9.18-.66-9.67-.62,0,0-7-.43-7.83-.31,0,0-3.88,0-4.57.19,0,0-2.88.29-3.39,1.51,0,0-1.38-2.93,11.59-2.32,0,0,15.87.62,17.37.75,2.66.23,8.88.92,10.53,1.77A17.8,17.8,0,0,1,730.72,497Z" transform="translate(-5 -5)"/></g></g></g></svg>